<svg xmlns="http://www.w3.org/2000/svg" xmlns:xlink="http://www.w3.org/1999/xlink" width="500" zoomAndPan="magnify" viewBox="0 0 375 374.999991" height="500" preserveAspectRatio="xMidYMid meet" version="1.0"><defs><g/></defs><rect x="-37.5" width="450" fill="#ffffff" y="-37.499999" height="449.999989" fill-opacity="1"/><rect x="-37.5" width="450" fill="#4e148c" y="-37.499999" height="449.999989" fill-opacity="1"/><g fill="#ffffff" fill-opacity="1"><g transform="translate(2.437451, 258.357776)"><g><path d="M 55.265625 2.109375 C 45.992188 2.109375 37.71875 -0.0859375 30.4375 -4.484375 C 23.164062 -8.890625 17.414062 -14.90625 13.1875 -22.53125 C 8.96875 -30.15625 6.859375 -38.601562 6.859375 -47.875 C 6.859375 -57.257812 8.96875 -65.707031 13.1875 -73.21875 C 17.414062 -80.726562 23.195312 -86.710938 30.53125 -91.171875 C 37.863281 -95.628906 46.050781 -97.859375 55.09375 -97.859375 C 62.363281 -97.859375 68.84375 -96.421875 74.53125 -93.546875 C 80.226562 -90.671875 84.71875 -86.648438 88 -81.484375 L 84.484375 -76.734375 L 84.484375 -133.234375 L 107.53125 -133.234375 L 107.53125 0 L 85.71875 0 L 85.71875 -18.484375 L 88.171875 -13.90625 C 84.890625 -8.738281 80.3125 -4.773438 74.4375 -2.015625 C 68.570312 0.734375 62.179688 2.109375 55.265625 2.109375 Z M 57.734375 -19.015625 C 63.003906 -19.015625 67.632812 -20.242188 71.625 -22.703125 C 75.613281 -25.171875 78.753906 -28.570312 81.046875 -32.90625 C 83.335938 -37.25 84.484375 -42.238281 84.484375 -47.875 C 84.484375 -53.382812 83.335938 -58.335938 81.046875 -62.734375 C 78.753906 -67.140625 75.613281 -70.570312 71.625 -73.03125 C 67.632812 -75.5 63.003906 -76.734375 57.734375 -76.734375 C 52.566406 -76.734375 47.925781 -75.472656 43.8125 -72.953125 C 39.707031 -70.429688 36.507812 -67.023438 34.21875 -62.734375 C 31.9375 -58.453125 30.796875 -53.5 30.796875 -47.875 C 30.796875 -42.238281 31.9375 -37.25 34.21875 -32.90625 C 36.507812 -28.570312 39.707031 -25.171875 43.8125 -22.703125 C 47.925781 -20.242188 52.566406 -19.015625 57.734375 -19.015625 Z M 57.734375 -19.015625 "/></g></g></g><g fill="#ffffff" fill-opacity="1"><g transform="translate(99.75855, 258.357776)"><g><path d="M 56.140625 2.109375 C 46.285156 2.109375 37.660156 -0.117188 30.265625 -4.578125 C 22.878906 -9.035156 17.128906 -15.078125 13.015625 -22.703125 C 8.910156 -30.328125 6.859375 -38.773438 6.859375 -48.046875 C 6.859375 -57.671875 8.941406 -66.207031 13.109375 -73.65625 C 17.273438 -81.101562 22.96875 -87 30.1875 -91.34375 C 37.40625 -95.6875 45.472656 -97.859375 54.390625 -97.859375 C 61.890625 -97.859375 68.484375 -96.625 74.171875 -94.15625 C 79.867188 -91.695312 84.710938 -88.296875 88.703125 -83.953125 C 92.691406 -79.609375 95.742188 -74.648438 97.859375 -69.078125 C 99.972656 -63.503906 101.03125 -57.492188 101.03125 -51.046875 C 101.03125 -49.398438 100.941406 -47.695312 100.765625 -45.9375 C 100.585938 -44.175781 100.265625 -42.648438 99.796875 -41.359375 L 25.875 -41.359375 L 25.875 -58.953125 L 86.765625 -58.953125 L 75.859375 -50.6875 C 76.910156 -56.082031 76.644531 -60.890625 75.0625 -65.109375 C 73.476562 -69.335938 70.894531 -72.679688 67.3125 -75.140625 C 63.738281 -77.609375 59.429688 -78.84375 54.390625 -78.84375 C 49.578125 -78.84375 45.289062 -77.640625 41.53125 -75.234375 C 37.78125 -72.828125 34.9375 -69.304688 33 -64.671875 C 31.0625 -60.046875 30.328125 -54.445312 30.796875 -47.875 C 30.328125 -42.007812 31.117188 -36.816406 33.171875 -32.296875 C 35.222656 -27.773438 38.273438 -24.28125 42.328125 -21.8125 C 46.378906 -19.351562 51.039062 -18.125 56.3125 -18.125 C 61.59375 -18.125 66.082031 -19.238281 69.78125 -21.46875 C 73.476562 -23.695312 76.382812 -26.691406 78.5 -30.453125 L 97.15625 -21.296875 C 95.28125 -16.722656 92.347656 -12.675781 88.359375 -9.15625 C 84.367188 -5.632812 79.644531 -2.875 74.1875 -0.875 C 68.726562 1.113281 62.710938 2.109375 56.140625 2.109375 Z M 56.140625 2.109375 "/></g></g></g><g fill="#ffffff" fill-opacity="1"><g transform="translate(186.520178, 258.357776)"><g><path d="M 10.734375 0 L 10.734375 -95.75 L 32.390625 -95.75 L 32.390625 -73.5625 L 29.921875 -77.265625 C 31.679688 -84.179688 35.203125 -89.34375 40.484375 -92.75 C 45.765625 -96.15625 51.984375 -97.859375 59.140625 -97.859375 C 66.992188 -97.859375 73.910156 -95.800781 79.890625 -91.6875 C 85.878906 -87.582031 89.753906 -82.1875 91.515625 -75.5 L 85.015625 -74.96875 C 87.941406 -82.601562 92.335938 -88.328125 98.203125 -92.140625 C 104.078125 -95.953125 110.828125 -97.859375 118.453125 -97.859375 C 125.253906 -97.859375 131.320312 -96.332031 136.65625 -93.28125 C 142 -90.226562 146.195312 -85.972656 149.25 -80.515625 C 152.300781 -75.066406 153.828125 -68.757812 153.828125 -61.59375 L 153.828125 0 L 130.765625 0 L 130.765625 -56.140625 C 130.765625 -60.367188 130 -64.003906 128.46875 -67.046875 C 126.945312 -70.097656 124.835938 -72.472656 122.140625 -74.171875 C 119.441406 -75.878906 116.15625 -76.734375 112.28125 -76.734375 C 108.644531 -76.734375 105.421875 -75.878906 102.609375 -74.171875 C 99.796875 -72.472656 97.625 -70.097656 96.09375 -67.046875 C 94.570312 -64.003906 93.8125 -60.367188 93.8125 -56.140625 L 93.8125 0 L 70.75 0 L 70.75 -56.140625 C 70.75 -60.367188 69.984375 -64.003906 68.453125 -67.046875 C 66.929688 -70.097656 64.789062 -72.472656 62.03125 -74.171875 C 59.28125 -75.878906 56.023438 -76.734375 52.265625 -76.734375 C 48.628906 -76.734375 45.40625 -75.878906 42.59375 -74.171875 C 39.78125 -72.472656 37.609375 -70.097656 36.078125 -67.046875 C 34.554688 -64.003906 33.796875 -60.367188 33.796875 -56.140625 L 33.796875 0 Z M 10.734375 0 "/></g></g></g><g fill="#ffffff" fill-opacity="1"><g transform="translate(328.190997, 258.357776)"><g><path d="M 10.734375 0 L 10.734375 -95.75 L 33.796875 -95.75 L 33.796875 0 Z M 10.734375 -106.484375 L 10.734375 -131.125 L 33.796875 -131.125 L 33.796875 -106.484375 Z M 10.734375 -106.484375 "/></g></g></g></svg>