<svg width="50" height="50" viewBox="0 0 50 50" fill="none" xmlns="http://www.w3.org/2000/svg">
<path d="M24.972 0C11.332 0 0.274719 11.0572 0.274719 24.6973C0.274719 38.3373 11.332 49.3945 24.972 49.3945C38.612 49.3945 49.6693 38.3373 49.6693 24.6973C49.6693 11.0572 38.612 0 24.972 0ZM37.1905 38.9059L33.9201 40.5557C32.3916 41.3268 30.5898 41.369 29.0388 40.6457C19.9392 36.4016 13.2677 29.73 9.02359 20.6304C8.30023 19.0789 8.34249 17.2777 9.1136 15.7492L10.7634 12.4787C11.5482 10.9233 13.6952 10.7367 14.7363 12.1335L18.4168 17.0702C18.9716 17.815 19.0353 18.8166 18.5781 19.625L17.7675 21.0591C17.3789 21.7468 17.3532 22.5892 17.7242 23.2868C19.7296 27.0539 22.6159 29.9402 26.383 31.9456C27.0806 32.3166 27.923 32.2914 28.6107 31.9023L30.0448 31.0917C30.8532 30.6345 31.8548 30.6982 32.5996 31.253L37.5363 34.9335C38.9331 35.974 38.7465 38.1211 37.1905 38.9059ZM21.9979 15.7091C21.9979 14.8831 22.6675 14.2141 23.4929 14.2141C30.0893 14.2141 35.4552 19.5805 35.4552 26.1764C35.4552 27.0023 34.7856 27.6719 33.9596 27.6719C33.1336 27.6719 32.4646 27.0023 32.4646 26.1764C32.4646 21.2292 28.44 17.2047 23.4929 17.2047C22.6675 17.2041 21.9979 16.5345 21.9979 15.7091ZM39.9413 27.6714C39.1153 27.6714 38.4463 27.0018 38.4463 26.1758C38.4463 17.9308 31.7385 11.223 23.4934 11.223C22.6675 11.223 21.9984 10.5534 21.9984 9.72743C21.9984 8.90144 22.6675 8.23242 23.4934 8.23242C33.3872 8.23242 41.4368 16.2821 41.4368 26.1758C41.4368 27.0018 40.7673 27.6714 39.9413 27.6714Z" fill="black"/>
</svg>
